<?xml version="1.0" encoding="UTF-8" standalone="no"?>
<svg width="32px" height="32px" viewBox="0 0 32 32" version="1.1" xmlns="http://www.w3.org/2000/svg" xmlns:xlink="http://www.w3.org/1999/xlink">
    <!-- Generator: sketchtool 41.2 (35397) - http://www.bohemiancoding.com/sketch -->
    <title>0836A36D-CCC4-474E-8E24-945D35B0E0C8</title>
    <desc>Created with sketchtool.</desc>
    <defs>
        <circle id="path-1" cx="10" cy="10" r="10"></circle>
        <mask id="mask-2" maskContentUnits="userSpaceOnUse" maskUnits="objectBoundingBox" x="0" y="0" width="20" height="20" fill="white">
            <use xlink:href="#path-1"></use>
        </mask>
    </defs>
    <g id="Symbols" stroke="none" stroke-width="1" fill="none" fill-rule="evenodd">
        <g id="Icon-:-warning">
            <g transform="translate(6.000000, 6.000000)">
                <use id="Oval" stroke="#358ED7" mask="url(#mask-2)" stroke-width="4" xlink:href="#path-1"></use>
                <path d="M10.8873479,5 L10.8873479,8.9836274 C10.8873479,9.40613545 10.866455,9.82051212 10.8246685,10.2267699 C10.782882,10.6330276 10.7271675,11.0636543 10.6575233,11.518663 L9.49447123,11.518663 C9.42482705,11.0636543 9.36911254,10.6330276 9.32732603,10.2267699 C9.28553952,9.82051212 9.26464658,9.40613545 9.26464658,8.9836274 L9.26464658,5 L10.8873479,5 Z M9,14.1233425 C9,13.9794112 9.02669654,13.8424463 9.08009041,13.7124438 C9.13348429,13.5824414 9.2077703,13.4710123 9.30295068,13.3781534 C9.39813107,13.2852945 9.51072081,13.2110085 9.64072329,13.1552932 C9.77072576,13.0995778 9.91001204,13.0717205 10.0585863,13.0717205 C10.2025176,13.0717205 10.3394825,13.0995778 10.4694849,13.1552932 C10.5994874,13.2110085 10.7109164,13.2852945 10.8037753,13.3781534 C10.8966343,13.4710123 10.9709203,13.5824414 11.0266356,13.7124438 C11.082351,13.8424463 11.1102082,13.9794112 11.1102082,14.1233425 C11.1102082,14.2719167 11.082351,14.4100423 11.0266356,14.5377233 C10.9709203,14.6654043 10.8966343,14.7756726 10.8037753,14.8685315 C10.7109164,14.9613904 10.5994874,15.0345157 10.4694849,15.0879096 C10.3394825,15.1413035 10.2025176,15.168 10.0585863,15.168 C9.91001204,15.168 9.77072576,15.1413035 9.64072329,15.0879096 C9.51072081,15.0345157 9.39813107,14.9613904 9.30295068,14.8685315 C9.2077703,14.7756726 9.13348429,14.6654043 9.08009041,14.5377233 C9.02669654,14.4100423 9,14.2719167 9,14.1233425 L9,14.1233425 Z" id="!" fill="#358ED7"></path>
            </g>
        </g>
    </g>
</svg>