<?xml version="1.0" encoding="UTF-8" standalone="no"?>
<svg width="32px" height="32px" viewBox="0 0 32 32" version="1.1" xmlns="http://www.w3.org/2000/svg" xmlns:xlink="http://www.w3.org/1999/xlink">
    <!-- Generator: sketchtool 41.2 (35397) - http://www.bohemiancoding.com/sketch -->
    <title>BC1976BC-5A70-4CE6-A3B2-78915172FC56</title>
    <desc>Created with sketchtool.</desc>
    <defs>
        <circle id="path-1" cx="10" cy="10" r="10"></circle>
        <mask id="mask-2" maskContentUnits="userSpaceOnUse" maskUnits="objectBoundingBox" x="0" y="0" width="20" height="20" fill="white">
            <use xlink:href="#path-1"></use>
        </mask>
    </defs>
    <g id="Symbols" stroke="none" stroke-width="1" fill="none" fill-rule="evenodd">
        <g id="Icon-:-Error">
            <g transform="translate(6.000000, 6.000000)">
                <use id="Oval" stroke="#358ED7" mask="url(#mask-2)" stroke-width="4" xlink:href="#path-1"></use>
                <path d="M7,5.99593496 C7.15356897,5.86043293 7.3218148,5.73170793 7.50474255,5.6097561 C7.68767029,5.48780427 7.88527446,5.3816626 8.09756098,5.29132791 C8.30984749,5.20099322 8.54019749,5.12985572 8.78861789,5.07791328 C9.03703828,5.02597083 9.30577995,5 9.59485095,5 C9.98780684,5 10.3457527,5.0542 10.6686992,5.16260163 C10.9916457,5.27100325 11.2682915,5.42569909 11.498645,5.62669377 C11.7289984,5.82768845 11.9074068,6.07045928 12.0338753,6.35501355 C12.1603439,6.63956782 12.2235772,6.95799282 12.2235772,7.3102981 C12.2235772,7.65356992 12.1738939,7.95054075 12.0745257,8.20121951 C11.9751576,8.45189827 11.8498201,8.66982744 11.6985095,8.85501355 C11.5471989,9.04019966 11.3834697,9.20054133 11.2073171,9.33604336 C11.0311644,9.47154539 10.8640478,9.59914123 10.7059621,9.71883469 C10.5478764,9.83852815 10.4112472,9.95596148 10.2960705,10.0711382 C10.1808937,10.1863149 10.1120146,10.3161691 10.0894309,10.4607046 L9.93360434,11.4498645 L8.78861789,11.4498645 L8.67344173,10.3455285 C8.668925,10.3229448 8.66666667,10.3037489 8.66666667,10.2879404 L8.66666667,10.2303523 C8.66666667,10.031616 8.71635,9.85885349 8.81571816,9.71205962 C8.91508631,9.56526575 9.03929465,9.42750742 9.18834688,9.29878049 C9.33739912,9.17005356 9.49774079,9.04471606 9.66937669,8.92276423 C9.8410126,8.8008124 10.0013543,8.6686999 10.1504065,8.52642276 C10.2994587,8.38414563 10.4236671,8.2226748 10.5230352,8.04200542 C10.6224034,7.86133604 10.6720867,7.64905271 10.6720867,7.40514905 C10.6720867,7.24254661 10.6415992,7.09688411 10.5806233,6.96815718 C10.5196474,6.83943025 10.4349599,6.72877192 10.3265583,6.63617886 C10.2181566,6.54358581 10.0883025,6.47244831 9.93699187,6.42276423 C9.78568127,6.37308015 9.6219521,6.34823848 9.44579946,6.34823848 C9.1883456,6.34823848 8.97041643,6.37646765 8.79200542,6.43292683 C8.61359441,6.48938601 8.46228608,6.55261934 8.33807588,6.62262873 C8.21386568,6.69263811 8.10885318,6.75587144 8.02303523,6.81233062 C7.93721728,6.8687898 7.86043394,6.89701897 7.79268293,6.89701897 C7.63008049,6.89701897 7.51264715,6.82926897 7.4403794,6.69376694 L7,5.99593496 Z M8.2804878,13.9837398 C8.2804878,13.8437211 8.30645864,13.7104794 8.35840108,13.5840108 C8.41034353,13.4575423 8.4826102,13.3491423 8.57520325,13.2588076 C8.66779631,13.1684729 8.77732547,13.0962062 8.90379404,13.0420054 C9.0302626,12.9878046 9.1657626,12.9607046 9.3102981,12.9607046 C9.45031687,12.9607046 9.58355854,12.9878046 9.7100271,13.0420054 C9.83649566,13.0962062 9.94489566,13.1684729 10.0352304,13.2588076 C10.125565,13.3491423 10.1978317,13.4575423 10.2520325,13.5840108 C10.3062333,13.7104794 10.3333333,13.8437211 10.3333333,13.9837398 C10.3333333,14.1282753 10.3062333,14.2626462 10.2520325,14.3868564 C10.1978317,14.5110666 10.125565,14.6183374 10.0352304,14.7086721 C9.94489566,14.7990068 9.83649566,14.8701443 9.7100271,14.9220867 C9.58355854,14.9740292 9.45031687,15 9.3102981,15 C9.1657626,15 9.0302626,14.9740292 8.90379404,14.9220867 C8.77732547,14.8701443 8.66779631,14.7990068 8.57520325,14.7086721 C8.4826102,14.6183374 8.41034353,14.5110666 8.35840108,14.3868564 C8.30645864,14.2626462 8.2804878,14.1282753 8.2804878,13.9837398 L8.2804878,13.9837398 Z" id="?" fill="#358ED7"></path>
            </g>
        </g>
    </g>
</svg>