<?xml version="1.0" encoding="UTF-8" standalone="no"?>
<svg width="32px" height="32px" viewBox="0 0 32 32" version="1.1" xmlns="http://www.w3.org/2000/svg" xmlns:xlink="http://www.w3.org/1999/xlink">
    <!-- Generator: sketchtool 41.2 (35397) - http://www.bohemiancoding.com/sketch -->
    <title>40476DB1-BDAB-42C6-AB5B-7EDBA0F858CD</title>
    <desc>Created with sketchtool.</desc>
    <defs>
        <rect id="path-1" x="1" y="3" width="16" height="18"></rect>
        <mask id="mask-2" maskContentUnits="userSpaceOnUse" maskUnits="objectBoundingBox" x="0" y="0" width="16" height="18" fill="white">
            <use xlink:href="#path-1"></use>
        </mask>
    </defs>
    <g id="Symbols" stroke="none" stroke-width="1" fill="none" fill-rule="evenodd">
        <g id="Icon-:-rubish-bin" stroke="#4990E2">
            <g transform="translate(7.000000, 6.000000)" id="Rectangle-8">
                <g>
                    <use mask="url(#mask-2)" stroke-width="4" xlink:href="#path-1"></use>
                    <path d="M0,4 L18.1363636,4" id="Stroke-264" stroke-width="2" stroke-linecap="round"></path>
                    <path d="M12.4090909,2.86363636 C12.4090909,3.12709091 12.1952727,3.34090909 11.9318182,3.34090909 L6.20454545,3.34090909 C5.94109091,3.34090909 5.72727273,3.12709091 5.72727273,2.86363636 L5.72727273,0.477272727 C5.72727273,0.213818182 5.94109091,0 6.20454545,0 L11.9318182,0 C12.1952727,0 12.4090909,0.213818182 12.4090909,0.477272727 L12.4090909,2.86363636 L12.4090909,2.86363636 Z" id="Stroke-266" stroke-width="2" stroke-linecap="round"></path>
                    <path d="M5.25,7.11363636 L5.25,15.7045455" id="Stroke-268" stroke-width="2" stroke-linecap="round"></path>
                    <path d="M9.06818182,7.11363636 L9.06818182,15.7045455" id="Stroke-270" stroke-width="2" stroke-linecap="round"></path>
                    <path d="M12.8863636,7.11363636 L12.8863636,15.7045455" id="Stroke-272" stroke-width="2" stroke-linecap="round"></path>
                </g>
            </g>
        </g>
    </g>
</svg>