<?xml version="1.0" encoding="UTF-8" standalone="no"?>
<svg width="32px" height="32px" viewBox="0 0 32 32" version="1.1" xmlns="http://www.w3.org/2000/svg" xmlns:xlink="http://www.w3.org/1999/xlink">
    <!-- Generator: sketchtool 41.2 (35397) - http://www.bohemiancoding.com/sketch -->
    <title>EE9AF111-B804-4F6E-95FE-A0F22339E270</title>
    <desc>Created with sketchtool.</desc>
    <defs>
        <path d="M1.12235294,0.195882353 L0.196470588,1.12117647 C-0.0676470588,1.38529412 -0.0635294118,1.80352941 0.196470588,2.06352941 L17.9352941,19.8047059 C18.1970588,20.0658824 18.6176471,20.0647059 18.8776471,19.8041176 L19.8029412,18.8788235 C20.0676471,18.6147059 20.0635294,18.1964706 19.8035294,17.9364706 L2.06470588,0.195294118 C1.93411765,0.0647058824 1.76411765,-2.84217094e-14 1.59411765,-2.84217094e-14 C1.42352941,-2.84217094e-14 1.25235294,0.0652941176 1.12235294,0.195882353 L1.12235294,0.195882353 Z" id="path-1"></path>
    </defs>
    <g id="Symbols" stroke="none" stroke-width="1" fill="none" fill-rule="evenodd">
        <g id="Icon-:-Plus">
            <g transform="translate(16.000000, 16.000000) rotate(-315.000000) translate(-16.000000, -16.000000) translate(6.000000, 6.000000)">
                <g id="Group-22">
                    <mask id="mask-2" fill="white">
                        <use xlink:href="#path-1"></use>
                    </mask>
                    <g id="Clip-21"></g>
                </g>
                <path d="M1.42857143,1.42857143 L18.5714286,18.5714286" id="Stroke-23" stroke="#4990E2" stroke-width="2" stroke-linecap="round"></path>
                <path d="M18.5714286,1.42857143 L1.42857143,18.5714286" id="Stroke-25" stroke="#4990E2" stroke-width="2" stroke-linecap="round"></path>
            </g>
        </g>
    </g>
</svg>