<?xml version="1.0" encoding="UTF-8" standalone="no"?>
<svg width="32px" height="32px" viewBox="0 0 32 32" version="1.1" xmlns="http://www.w3.org/2000/svg" xmlns:xlink="http://www.w3.org/1999/xlink">
    <!-- Generator: sketchtool 41.2 (35397) - http://www.bohemiancoding.com/sketch -->
    <title>FAB98240-EC78-4C89-9D00-127FADDB6D85</title>
    <desc>Created with sketchtool.</desc>
    <defs></defs>
    <g id="Symbols" stroke="none" stroke-width="1" fill="none" fill-rule="evenodd">
        <g id="Icon-:-Credit-card2">
            <g transform="translate(3.000000, 8.000000)">
                <path d="M27,15.4285714 C27,15.744 26.712,16 26.3571429,16 L0.642857143,16 C0.288,16 0,15.744 0,15.4285714 L0,0.571428571 C0,0.256 0.288,0 0.642857143,0 L26.3571429,0 C26.712,0 27,0.256 27,0.571428571 L27,15.4285714 L27,15.4285714 Z" id="Stroke-419" stroke="#4990E2" stroke-width="2" stroke-linecap="round" stroke-linejoin="round"></path>
                <rect id="Rectangle" fill="#4990E2" x="3.77777778" y="3.88888889" width="4.88888889" height="4.44444444" rx="1"></rect>
                <path d="M4.11111111,13.3333333 L3.22222222,13.3333333 C2.97644444,13.3333333 2.77777778,13.1342222 2.77777778,12.8888889 C2.77777778,12.6435556 2.97644444,12.4444444 3.22222222,12.4444444 L4.11111111,12.4444444 C4.35688889,12.4444444 4.55555556,12.6435556 4.55555556,12.8888889 C4.55555556,13.1342222 4.35688889,13.3333333 4.11111111,13.3333333" id="Numbers" fill="#4990E2" opacity="0.71822528"></path>
                <path d="M6.33333333,13.3333333 L5.44444444,13.3333333 C5.19866667,13.3333333 5,13.1342222 5,12.8888889 C5,12.6435556 5.19866667,12.4444444 5.44444444,12.4444444 L6.33333333,12.4444444 C6.57911111,12.4444444 6.77777778,12.6435556 6.77777778,12.8888889 C6.77777778,13.1342222 6.57911111,13.3333333 6.33333333,13.3333333" id="Numbers" fill="#4990E2" opacity="0.71822528"></path>
                <path d="M8.55555556,13.3333333 L7.66666667,13.3333333 C7.42088889,13.3333333 7.22222222,13.1342222 7.22222222,12.8888889 C7.22222222,12.6435556 7.42088889,12.4444444 7.66666667,12.4444444 L8.55555556,12.4444444 C8.80133333,12.4444444 9,12.6435556 9,12.8888889 C9,13.1342222 8.80133333,13.3333333 8.55555556,13.3333333" id="Numbers" fill="#4990E2" opacity="0.71822528"></path>
                <path d="M12.5555556,13.3333333 L11.6666667,13.3333333 C11.4208889,13.3333333 11.2222222,13.1342222 11.2222222,12.8888889 C11.2222222,12.6435556 11.4208889,12.4444444 11.6666667,12.4444444 L12.5555556,12.4444444 C12.8013333,12.4444444 13,12.6435556 13,12.8888889 C13,13.1342222 12.8013333,13.3333333 12.5555556,13.3333333" id="Numbers" fill="#4990E2" opacity="0.71822528"></path>
                <path d="M14.7777778,13.3333333 L13.8888889,13.3333333 C13.6431111,13.3333333 13.4444444,13.1342222 13.4444444,12.8888889 C13.4444444,12.6435556 13.6431111,12.4444444 13.8888889,12.4444444 L14.7777778,12.4444444 C15.0235556,12.4444444 15.2222222,12.6435556 15.2222222,12.8888889 C15.2222222,13.1342222 15.0235556,13.3333333 14.7777778,13.3333333" id="Numbers" fill="#4990E2" opacity="0.71822528"></path>
                <path d="M17,13.3333333 L16.1111111,13.3333333 C15.8653333,13.3333333 15.6666667,13.1342222 15.6666667,12.8888889 C15.6666667,12.6435556 15.8653333,12.4444444 16.1111111,12.4444444 L17,12.4444444 C17.2457778,12.4444444 17.4444444,12.6435556 17.4444444,12.8888889 C17.4444444,13.1342222 17.2457778,13.3333333 17,13.3333333" id="Numbers" fill="#4990E2" opacity="0.71822528"></path>
                <path d="M19.5555556,13.3333333 L18.6666667,13.3333333 C18.4208889,13.3333333 18.2222222,13.1342222 18.2222222,12.8888889 C18.2222222,12.6435556 18.4208889,12.4444444 18.6666667,12.4444444 L19.5555556,12.4444444 C19.8013333,12.4444444 20,12.6435556 20,12.8888889 C20,13.1342222 19.8013333,13.3333333 19.5555556,13.3333333" id="Numbers" fill="#4990E2" opacity="0.71822528"></path>
                <path d="M21.7777778,13.3333333 L20.8888889,13.3333333 C20.6431111,13.3333333 20.4444444,13.1342222 20.4444444,12.8888889 C20.4444444,12.6435556 20.6431111,12.4444444 20.8888889,12.4444444 L21.7777778,12.4444444 C22.0235556,12.4444444 22.2222222,12.6435556 22.2222222,12.8888889 C22.2222222,13.1342222 22.0235556,13.3333333 21.7777778,13.3333333" id="Numbers" fill="#4990E2" opacity="0.71822528"></path>
                <path d="M24,13.3333333 L23.1111111,13.3333333 C22.8653333,13.3333333 22.6666667,13.1342222 22.6666667,12.8888889 C22.6666667,12.6435556 22.8653333,12.4444444 23.1111111,12.4444444 L24,12.4444444 C24.2457778,12.4444444 24.4444444,12.6435556 24.4444444,12.8888889 C24.4444444,13.1342222 24.2457778,13.3333333 24,13.3333333" id="numbers" fill="#4990E2" opacity="0.71822528"></path>
            </g>
        </g>
    </g>
</svg>