<?xml version="1.0" encoding="UTF-8" standalone="no"?>
<svg width="32px" height="32px" viewBox="0 0 32 32" version="1.1" xmlns="http://www.w3.org/2000/svg" xmlns:xlink="http://www.w3.org/1999/xlink">
    <!-- Generator: sketchtool 41.2 (35397) - http://www.bohemiancoding.com/sketch -->
    <title>5D31357A-7F03-4126-9772-663AECC546B1</title>
    <desc>Created with sketchtool.</desc>
    <defs></defs>
    <g id="Symbols" stroke="none" stroke-width="1" fill="none" fill-rule="evenodd" stroke-linecap="round">
        <g id="Icon-:-basket" stroke="#4990E2">
            <g transform="translate(6.000000, 7.000000)">
                <path d="M0.37414236,6.22425629 L19.0760996,6.22425629 C19.3507746,6.22425629 19.5104185,6.27050598 19.4299405,6.56831935 L16.5799685,17.2537249 C16.5008026,17.5463514 16.2860487,17.8947368 16.0984124,17.8947368 L3.35226689,17.8947368 C3.16506799,17.8947368 2.9507515,17.4581744 2.87071085,17.160361 L0.0203014519,6.67032799 C-0.0584270567,6.3777015 0.09859258,6.22425629 0.37414236,6.22425629 L0.37414236,6.22425629 Z" id="Stroke-168" stroke-width="2"></path>
                <path d="M7.78032037,0 L2.33409611,6.22425629" id="Stroke-170" stroke-width="2"></path>
                <path d="M11.6704805,0 L17.1167048,6.22425629" id="Stroke-172" stroke-width="2"></path>
                <path d="M6,10.1144165 L6,13.2265446" id="Stroke-174"></path>
                <path d="M14,10.1144165 L14,13.2265446" id="Stroke-176"></path>
                <path d="M10,10.1144165 L10,13.2265446" id="Stroke-178"></path>
            </g>
        </g>
    </g>
</svg>