<?xml version="1.0" encoding="UTF-8" standalone="no"?>
<svg width="32px" height="32px" viewBox="0 0 32 32" version="1.1" xmlns="http://www.w3.org/2000/svg" xmlns:xlink="http://www.w3.org/1999/xlink">
    <!-- Generator: sketchtool 41.2 (35397) - http://www.bohemiancoding.com/sketch -->
    <title>A170E977-A72A-4EB1-904A-E58418F1BFBB</title>
    <desc>Created with sketchtool.</desc>
    <defs></defs>
    <g id="Symbols" stroke="none" stroke-width="1" fill="none" fill-rule="evenodd" stroke-linecap="round">
        <g id="Icon-:-user-Copy" stroke="#4990E2" stroke-width="2">
            <g transform="translate(7.000000, 6.000000)">
                <path d="M18.2608696,16.5217391 C18.2608696,13.1602174 14.1731739,10.4347826 9.13043478,10.4347826 C4.08769565,10.4347826 0,13.1602174 0,16.5217391" id="Stroke-13"></path>
                <path d="M9.56521739,10.4347826 C12.4466403,10.4347826 14.7826087,8.09881423 14.7826087,5.2173913 C14.7826087,2.33596838 12.4466403,0 9.56521739,0 C6.68379447,0 4.34782609,2.33596838 4.34782609,5.2173913 C4.34782609,8.09881423 6.68379447,10.4347826 9.56521739,10.4347826 L9.56521739,10.4347826 Z" id="Stroke-15"></path>
                <path d="M18.2608696,16.5217391 L18.2608696,19.376087 C18.2608696,19.6308696 18.1700217,20 17.9052391,20 L0.583891304,20 C0.324586957,20 0,19.6278261 0,19.376087 L0,16.5217391" id="Stroke-17"></path>
            </g>
        </g>
    </g>
</svg>